<svg version="1.1" xmlns="http://www.w3.org/2000/svg" xmlns:xlink="http://www.w3.org/1999/xlink" x="0px" y="0px" width="100px" height="100px" viewBox="0 0 100 100" style="enable-background:new 0 0 100 100;" xml:space="preserve">
      <g>
        <circle style="&amp;st0;" cx="38.832" cy="82.896" r="5.552"/>
        <circle style="&amp;st0;" cx="68.924" cy="82.896" r="5.552"/>
        <path style="&amp;st0;" d="M84.935,23.92c-0.563-0.725-1.448-1.126-2.333-1.126H29.82l-0.644-4.265&#10;                                   c-0.563-3.781-3.782-6.517-7.563-6.517h-8.689c-1.69,0-3.058,1.368-3.058,3.058c0,1.689,1.368,3.058,3.058,3.058h8.609&#10;                                   c0.724,0,1.368,0.563,1.529,1.287l6.919,45.861c0.724,4.667,4.586,7.966,9.253,7.966h33.229c1.689,0,3.057-1.368,3.057-3.058&#10;                                   c0-1.69-1.367-3.058-3.057-3.058H39.314c-1.609,0-2.977-1.207-3.218-2.816l-0.724-4.586h40.953c1.448,0,2.735-1.046,2.978-2.414&#10;                                   l6.275-30.815C85.739,25.609,85.497,24.644,84.935,23.92z M76.969,38.241H66.51l0.482-9.333h11.827L76.969,38.241z M49.291,38.241&#10;                                   l-0.482-9.333h12.069l-0.483,9.333H49.291z M60.072,44.356l-0.482,9.333h-9.574l-0.483-9.333H60.072L60.072,44.356z M42.694,28.908&#10;                                   l0.482,9.333H32.154l-1.448-9.333H42.694z M33.039,44.356h10.379l0.483,9.333h-9.414L33.039,44.356z M65.705,53.689l0.482-9.333&#10;                                   h9.494l-1.851,9.333H65.705L65.705,53.689z"/>
      </g>
    </svg>